<svg width="16" height="10" viewBox="0 0 16 10" fill="none" xmlns="http://www.w3.org/2000/svg">
<path d="M0.292893 2.20711C-0.0976311 1.81658 -0.0976311 1.18342 0.292893 0.792893C0.683417 0.402369 1.31658 0.402369 1.70711 0.792893L0.292893 2.20711ZM8 8.5L8.70711 9.20711L8 9.91421L7.29289 9.20711L8 8.5ZM14.2929 0.792893C14.6834 0.402369 15.3166 0.402369 15.7071 0.792893C16.0976 1.18342 16.0976 1.81658 15.7071 2.20711L14.2929 0.792893ZM1.70711 0.792893L8.70711 7.79289L7.29289 9.20711L0.292893 2.20711L1.70711 0.792893ZM7.29289 7.79289L14.2929 0.792893L15.7071 2.20711L8.70711 9.20711L7.29289 7.79289Z" fill="#3E2E4D"/>
</svg>
